<svg xmlns="http://www.w3.org/2000/svg" xmlns:xlink="http://www.w3.org/1999/xlink" width="500" zoomAndPan="magnify" viewBox="0 0 375 374.999991" height="500" preserveAspectRatio="xMidYMid meet" version="1.0"><defs><g/><clipPath id="af989a9237"><path d="M 114 102 L 205 102 L 205 252 L 114 252 Z M 114 102 " clip-rule="nonzero"/></clipPath><clipPath id="2f6e165fb7"><path d="M 114.125 102.25 L 228.152344 124.886719 L 202.882812 252.15625 L 88.859375 229.515625 Z M 114.125 102.25 " clip-rule="nonzero"/></clipPath><clipPath id="8672735bf7"><path d="M 114.125 102.25 L 228.152344 124.886719 L 202.882812 252.15625 L 88.859375 229.515625 Z M 114.125 102.25 " clip-rule="nonzero"/></clipPath><clipPath id="8144f8ae7e"><path d="M 196 137 L 273 137 L 273 218 L 196 218 Z M 196 137 " clip-rule="nonzero"/></clipPath><clipPath id="7198bfe7eb"><path d="M 194.140625 139.035156 L 272.851562 136.585938 L 275.324219 216.050781 L 196.613281 218.496094 Z M 194.140625 139.035156 " clip-rule="nonzero"/></clipPath><clipPath id="cf3cbebfa1"><path d="M 194.140625 139.035156 L 272.851562 136.585938 L 275.324219 216.050781 L 196.613281 218.496094 Z M 194.140625 139.035156 " clip-rule="nonzero"/></clipPath></defs><g clip-path="url(#af989a9237)"><g clip-path="url(#2f6e165fb7)"><g clip-path="url(#8672735bf7)"><path fill="#4bab13" d="M 196.003906 249.417969 C 194.277344 214.152344 196.011719 188.613281 172.886719 161.328125 C 172.179688 160.464844 171.667969 159.886719 171.511719 159.808594 C 171.371094 160.03125 172.050781 160.878906 172.355469 161.460938 C 179.679688 172.558594 191.445312 194.140625 186.914062 207.101562 C 181.898438 216.859375 165.566406 209.691406 159.070312 204.996094 C 140.394531 192.480469 132.1875 171.488281 128.472656 150.269531 C 125.972656 138.996094 124.570312 127.707031 121.183594 116.589844 C 120.179688 112.761719 117.542969 108.386719 115.128906 104.578125 C 114.066406 102.554688 115.441406 102.511719 116.867188 102.980469 C 121.941406 104.644531 126.789062 106.179688 132.007812 107.703125 C 164.464844 115.828125 190.972656 135.78125 199.671875 169.011719 C 203.253906 181.046875 203.933594 194.855469 204.527344 210.535156 C 204.714844 221.324219 204.332031 235.730469 203.25 247.65625 C 203.070312 249.488281 203.117188 251.699219 200.941406 251.683594 C 199.402344 251.605469 197.082031 251.3125 196.191406 249.824219 Z M 196.003906 249.417969 " fill-opacity="1" fill-rule="nonzero"/></g></g></g><g clip-path="url(#8144f8ae7e)"><g clip-path="url(#7198bfe7eb)"><g clip-path="url(#cf3cbebfa1)"><path fill="#4bab13" d="M 196.535156 215.972656 C 198.039062 201.742188 199.964844 188.773438 203.84375 175.59375 C 208.441406 157.125 222.730469 142.410156 241.375 139.0625 C 249.777344 137.328125 260.875 137.988281 269.738281 137.441406 C 270.707031 137.4375 271.402344 137.3125 272.40625 137.320312 C 272.710938 137.332031 272.910156 137.386719 272.976562 137.496094 C 272.984375 138.140625 271.878906 138.746094 271.296875 139.355469 C 264.890625 145.453125 263.144531 151.402344 259.441406 158.738281 C 254.0625 170.753906 248.46875 180.863281 240.144531 187.265625 C 234.414062 192.34375 215.085938 201.183594 211.027344 190.613281 C 209.9375 183.1875 219.476562 171.441406 224.539062 166.132812 C 225.210938 165.402344 229.570312 160.972656 226.523438 163.351562 C 221.101562 167.675781 215.976562 173.585938 212.617188 179.398438 C 208.632812 186.347656 205.375 196.972656 202.648438 211.539062 C 202.214844 214.273438 201.761719 217.960938 198.296875 217.449219 C 197.496094 217.46875 196.742188 216.925781 196.625 216.378906 Z M 196.535156 215.972656 " fill-opacity="1" fill-rule="nonzero"/></g></g></g><g fill="#214001" fill-opacity="1"><g transform="translate(23.825513, 250.41596)"><g><path d="M 30.8125 -47.34375 L 30.8125 -37.875 L 14.234375 -37.875 L 14.234375 -28.46875 L 29.5625 -28.46875 L 29.5625 -19 L 14.234375 -19 L 14.234375 0 L 3.4375 0 L 3.4375 -47.34375 Z M 30.8125 -47.34375 "/></g></g></g><g fill="#214001" fill-opacity="1"><g transform="translate(55.101069, 250.41596)"><g><path d="M 5.4375 -3.640625 C 2.6875 -6.648438 1.3125 -10.332031 1.3125 -14.6875 C 1.3125 -19.050781 2.6875 -22.742188 5.4375 -25.765625 C 8.195312 -28.785156 11.703125 -30.296875 15.953125 -30.296875 C 19.859375 -30.296875 23.070312 -29.070312 25.59375 -26.625 L 25.59375 -29.4375 L 35.75 -29.4375 L 35.75 0 L 25.71875 0 L 25.71875 -3.328125 L 25.59375 -3.328125 C 23.070312 -0.535156 19.859375 0.859375 15.953125 0.859375 C 11.703125 0.859375 8.195312 -0.640625 5.4375 -3.640625 Z M 14.078125 -19.6875 C 12.765625 -18.382812 12.109375 -16.71875 12.109375 -14.6875 C 12.109375 -12.664062 12.738281 -11.015625 14 -9.734375 C 15.257812 -8.453125 16.925781 -7.8125 19 -7.8125 C 20.988281 -7.8125 22.625 -8.457031 23.90625 -9.75 C 25.1875 -11.050781 25.828125 -12.695312 25.828125 -14.6875 C 25.828125 -16.71875 25.164062 -18.382812 23.84375 -19.6875 C 22.519531 -20.988281 20.90625 -21.640625 19 -21.640625 C 17.039062 -21.640625 15.398438 -20.988281 14.078125 -19.6875 Z M 14.078125 -19.6875 "/></g></g></g><g fill="#214001" fill-opacity="1"><g transform="translate(93.033493, 250.41596)"><g><path d="M 3.4375 0 L 3.4375 -29.4375 L 13.609375 -29.4375 L 13.609375 -25.1875 L 13.71875 -25.1875 C 13.789062 -25.34375 13.910156 -25.535156 14.078125 -25.765625 C 14.253906 -25.992188 14.628906 -26.394531 15.203125 -26.96875 C 15.773438 -27.539062 16.382812 -28.054688 17.03125 -28.515625 C 17.6875 -28.984375 18.53125 -29.394531 19.5625 -29.75 C 20.601562 -30.113281 21.660156 -30.296875 22.734375 -30.296875 C 23.835938 -30.296875 24.925781 -30.144531 26 -29.84375 C 27.070312 -29.539062 27.851562 -29.234375 28.34375 -28.921875 L 29.15625 -28.46875 L 24.90625 -19.859375 C 23.644531 -20.929688 21.882812 -21.46875 19.625 -21.46875 C 18.40625 -21.46875 17.351562 -21.195312 16.46875 -20.65625 C 15.59375 -20.125 14.972656 -19.472656 14.609375 -18.703125 C 14.242188 -17.941406 13.984375 -17.289062 13.828125 -16.75 C 13.679688 -16.21875 13.609375 -15.800781 13.609375 -15.5 L 13.609375 0 Z M 3.4375 0 "/></g></g></g><g fill="#214001" fill-opacity="1"><g transform="translate(120.349371, 250.41596)"><g><path d="M 3.4375 0 L 3.4375 -29.4375 L 13.609375 -29.4375 L 13.609375 -26.34375 L 13.71875 -26.34375 C 16.351562 -28.976562 19.164062 -30.296875 22.15625 -30.296875 C 24.289062 -30.296875 26.296875 -29.851562 28.171875 -28.96875 C 30.046875 -28.09375 31.460938 -26.738281 32.421875 -24.90625 C 35.410156 -28.5 38.664062 -30.296875 42.1875 -30.296875 C 45.320312 -30.296875 48.015625 -29.414062 50.265625 -27.65625 C 52.523438 -25.894531 53.65625 -23.140625 53.65625 -19.390625 L 53.65625 0 L 43.5 0 L 43.5 -16.640625 C 43.5 -18.210938 43.066406 -19.523438 42.203125 -20.578125 C 41.347656 -21.628906 40.0625 -22.15625 38.34375 -22.15625 C 36.84375 -22.15625 35.703125 -21.703125 34.921875 -20.796875 C 34.140625 -19.898438 33.707031 -18.820312 33.625 -17.5625 L 33.625 0 L 23.46875 0 L 23.46875 -16.640625 C 23.46875 -18.210938 23.035156 -19.523438 22.171875 -20.578125 C 21.316406 -21.628906 20.03125 -22.15625 18.3125 -22.15625 C 16.738281 -22.15625 15.5625 -21.664062 14.78125 -20.6875 C 14 -19.707031 13.609375 -18.550781 13.609375 -17.21875 L 13.609375 0 Z M 3.4375 0 "/></g></g></g><g fill="#214001" fill-opacity="1"><g transform="translate(175.618471, 250.41596)"><g/></g></g><g fill="#214001" fill-opacity="1"><g transform="translate(190.022325, 250.41596)"><g/></g></g><g fill="#214001" fill-opacity="1"><g transform="translate(204.426178, 250.41596)"><g/></g></g><g fill="#214001" fill-opacity="1"><g transform="translate(218.837218, 250.41596)"><g><path d="M 18.25 0 L -1.609375 -47.34375 L 10.5625 -47.34375 L 22.5 -16.234375 L 34.4375 -47.34375 L 46.59375 -47.34375 L 26.75 0 Z M 18.25 0 "/></g></g></g><g fill="#214001" fill-opacity="1"><g transform="translate(262.565708, 250.41596)"><g><path d="M 4.421875 -45.859375 C 5.609375 -47.046875 7.023438 -47.640625 8.671875 -47.640625 C 10.316406 -47.640625 11.726562 -47.046875 12.90625 -45.859375 C 14.09375 -44.671875 14.6875 -43.253906 14.6875 -41.609375 C 14.6875 -39.960938 14.09375 -38.546875 12.90625 -37.359375 C 11.726562 -36.171875 10.316406 -35.578125 8.671875 -35.578125 C 7.023438 -35.578125 5.609375 -36.171875 4.421875 -37.359375 C 3.234375 -38.546875 2.640625 -39.960938 2.640625 -41.609375 C 2.640625 -43.253906 3.234375 -44.671875 4.421875 -45.859375 Z M 3.4375 -29.4375 L 3.4375 0 L 13.609375 0 L 13.609375 -29.4375 Z M 3.4375 -29.4375 "/></g></g></g><g fill="#214001" fill-opacity="1"><g transform="translate(278.633773, 250.41596)"><g><path d="M 33.734375 -25.765625 C 36.492188 -22.742188 37.875 -19.050781 37.875 -14.6875 C 37.875 -10.332031 36.492188 -6.648438 33.734375 -3.640625 C 30.984375 -0.640625 27.488281 0.859375 23.25 0.859375 C 19.34375 0.859375 16.128906 -0.535156 13.609375 -3.328125 L 13.484375 -3.328125 L 13.484375 0 L 3.4375 0 L 3.4375 -49.359375 L 13.609375 -49.359375 L 13.609375 -26.625 C 16.128906 -29.070312 19.34375 -30.296875 23.25 -30.296875 C 27.488281 -30.296875 30.984375 -28.785156 33.734375 -25.765625 Z M 25.1875 -9.734375 C 26.457031 -11.015625 27.09375 -12.664062 27.09375 -14.6875 C 27.09375 -16.71875 26.429688 -18.382812 25.109375 -19.6875 C 23.785156 -20.988281 22.148438 -21.640625 20.203125 -21.640625 C 18.285156 -21.640625 16.664062 -20.988281 15.34375 -19.6875 C 14.03125 -18.382812 13.375 -16.71875 13.375 -14.6875 C 13.375 -12.695312 14.015625 -11.050781 15.296875 -9.75 C 16.578125 -8.457031 18.210938 -7.8125 20.203125 -7.8125 C 22.265625 -7.8125 23.925781 -8.453125 25.1875 -9.734375 Z M 25.1875 -9.734375 "/></g></g></g><g fill="#214001" fill-opacity="1"><g transform="translate(316.566198, 250.41596)"><g><path d="M 33.234375 -13.3125 L 11.875 -13.3125 C 11.875 -11.25 12.539062 -9.71875 13.875 -8.71875 C 15.21875 -7.726562 16.675781 -7.234375 18.25 -7.234375 C 19.894531 -7.234375 21.195312 -7.453125 22.15625 -7.890625 C 23.113281 -8.328125 24.203125 -9.195312 25.421875 -10.5 L 32.765625 -6.828125 C 29.703125 -1.703125 24.613281 0.859375 17.5 0.859375 C 13.0625 0.859375 9.253906 -0.660156 6.078125 -3.703125 C 2.898438 -6.742188 1.3125 -10.40625 1.3125 -14.6875 C 1.3125 -18.976562 2.898438 -22.648438 6.078125 -25.703125 C 9.253906 -28.765625 13.0625 -30.296875 17.5 -30.296875 C 22.164062 -30.296875 25.960938 -28.945312 28.890625 -26.25 C 31.816406 -23.550781 33.28125 -19.695312 33.28125 -14.6875 C 33.28125 -14 33.265625 -13.539062 33.234375 -13.3125 Z M 12.171875 -18.9375 L 23.359375 -18.9375 C 23.128906 -20.46875 22.523438 -21.644531 21.546875 -22.46875 C 20.578125 -23.289062 19.328125 -23.703125 17.796875 -23.703125 C 16.109375 -23.703125 14.765625 -23.257812 13.765625 -22.375 C 12.773438 -21.5 12.242188 -20.351562 12.171875 -18.9375 Z M 12.171875 -18.9375 "/></g></g></g><g fill="#3d3d3d" fill-opacity="1"><g transform="translate(77.918052, 280.263644)"><g><path d="M 0.5 0 L 3.28125 -17.53125 L 6.21875 -17.53125 L 9.796875 -2.265625 L 9.84375 -2.265625 L 18.296875 -17.53125 L 21.28125 -17.53125 L 18.5 0 L 16.453125 0 L 18.8125 -14.546875 L 18.765625 -14.5625 L 10.59375 0 L 8.453125 0 L 4.921875 -14.546875 L 4.875 -14.546875 L 2.53125 0 Z M 0.5 0 "/></g></g></g><g fill="#3d3d3d" fill-opacity="1"><g transform="translate(102.974389, 280.263644)"><g><path d="M -0.765625 0 L 8.421875 -17.53125 L 10.90625 -17.53125 L 14.515625 0 L 12.375 0 L 11.5625 -4.21875 L 3.625 -4.21875 L 1.46875 0 Z M 4.46875 -6.015625 L 11.265625 -6.015625 L 9.421875 -15.53125 L 9.375 -15.53125 Z M 4.46875 -6.015625 "/></g></g></g><g fill="#3d3d3d" fill-opacity="1"><g transform="translate(122.811075, 280.263644)"><g><path d="M 12.484375 0.46875 C 11.765625 0.46875 11.226562 0.269531 10.875 -0.125 C 10.53125 -0.519531 10.328125 -1.015625 10.265625 -1.609375 L 9.8125 -5.25 C 9.75 -5.90625 9.519531 -6.425781 9.125 -6.8125 C 8.738281 -7.207031 8.25 -7.40625 7.65625 -7.40625 L 3.703125 -7.40625 L 2.53125 0 L 0.5 0 L 3.28125 -17.53125 L 10.421875 -17.53125 C 12.160156 -17.53125 13.492188 -17.144531 14.421875 -16.375 C 15.347656 -15.601562 15.8125 -14.53125 15.8125 -13.15625 C 15.8125 -12.207031 15.578125 -11.359375 15.109375 -10.609375 C 14.648438 -9.867188 14.019531 -9.253906 13.21875 -8.765625 C 12.425781 -8.273438 11.515625 -7.9375 10.484375 -7.75 L 10.484375 -7.734375 C 10.890625 -7.515625 11.207031 -7.1875 11.4375 -6.75 C 11.664062 -6.320312 11.804688 -5.84375 11.859375 -5.3125 L 12.203125 -2.21875 C 12.253906 -1.570312 12.503906 -1.25 12.953125 -1.25 C 13.234375 -1.25 13.519531 -1.351562 13.8125 -1.5625 C 14.113281 -1.78125 14.382812 -2.054688 14.625 -2.390625 L 15.515625 -1.125 C 15.097656 -0.625 14.625 -0.234375 14.09375 0.046875 C 13.5625 0.328125 13.023438 0.46875 12.484375 0.46875 Z M 4 -9.21875 L 9.09375 -9.21875 C 9.9375 -9.21875 10.710938 -9.382812 11.421875 -9.71875 C 12.140625 -10.050781 12.710938 -10.503906 13.140625 -11.078125 C 13.578125 -11.648438 13.796875 -12.300781 13.796875 -13.03125 C 13.796875 -13.875 13.488281 -14.53125 12.875 -15 C 12.257812 -15.476562 11.378906 -15.71875 10.234375 -15.71875 L 5.046875 -15.71875 Z M 4 -9.21875 "/></g></g></g><g fill="#3d3d3d" fill-opacity="1"><g transform="translate(143.194581, 280.263644)"><g><path d="M 0.5 0 L 3.28125 -17.53125 L 5.3125 -17.53125 L 4 -9.453125 L 4.03125 -9.453125 L 12.328125 -17.53125 L 14.84375 -17.53125 L 7.6875 -10.5625 L 12.453125 0 L 10.125 0 L 6.140625 -9.09375 L 3.65625 -6.71875 L 2.53125 0 Z M 0.5 0 "/></g></g></g><g fill="#3d3d3d" fill-opacity="1"><g transform="translate(160.96825, 280.263644)"><g><path d="M 0.5 0 L 3.28125 -17.53125 L 14.46875 -17.53125 L 14.1875 -15.71875 L 4.96875 -15.71875 L 4.046875 -9.921875 L 12.28125 -9.921875 L 12 -8.171875 L 3.78125 -8.171875 L 2.78125 -1.8125 L 12.234375 -1.8125 L 11.953125 0 Z M 0.5 0 "/></g></g></g><g fill="#3d3d3d" fill-opacity="1"><g transform="translate(178.617653, 280.263644)"><g><path d="M 4.75 0 L 7.234375 -15.71875 L 1.734375 -15.71875 L 2.03125 -17.53125 L 15.046875 -17.53125 L 14.765625 -15.71875 L 9.265625 -15.71875 L 6.78125 0 Z M 4.75 0 "/></g></g></g><g fill="#3d3d3d" fill-opacity="1"><g transform="translate(196.217338, 280.263644)"><g/></g></g><g fill="#3d3d3d" fill-opacity="1"><g transform="translate(206.484656, 280.263644)"><g><path d="M 0.5 0 L 3.28125 -17.53125 L 9.921875 -17.53125 C 11.640625 -17.53125 12.960938 -17.125 13.890625 -16.3125 C 14.816406 -15.507812 15.28125 -14.390625 15.28125 -12.953125 C 15.28125 -11.078125 14.671875 -9.601562 13.453125 -8.53125 C 12.242188 -7.46875 10.550781 -6.9375 8.375 -6.9375 L 3.578125 -6.9375 L 2.484375 0 Z M 3.875 -8.78125 L 8.5 -8.78125 C 9.988281 -8.78125 11.15625 -9.144531 12 -9.875 C 12.851562 -10.613281 13.28125 -11.613281 13.28125 -12.875 C 13.28125 -13.769531 12.972656 -14.46875 12.359375 -14.96875 C 11.742188 -15.46875 10.863281 -15.71875 9.71875 -15.71875 L 4.96875 -15.71875 Z M 3.875 -8.78125 "/></g></g></g><g fill="#3d3d3d" fill-opacity="1"><g transform="translate(225.351968, 280.263644)"><g><path d="M 0.5 0 L 3.28125 -17.53125 L 5.3125 -17.53125 L 2.828125 -1.8125 L 11.03125 -1.8125 L 10.765625 0 Z M 0.5 0 "/></g></g></g><g fill="#3d3d3d" fill-opacity="1"><g transform="translate(241.435471, 280.263644)"><g><path d="M -0.765625 0 L 8.421875 -17.53125 L 10.90625 -17.53125 L 14.515625 0 L 12.375 0 L 11.5625 -4.21875 L 3.625 -4.21875 L 1.46875 0 Z M 4.46875 -6.015625 L 11.265625 -6.015625 L 9.421875 -15.53125 L 9.375 -15.53125 Z M 4.46875 -6.015625 "/></g></g></g><g fill="#3d3d3d" fill-opacity="1"><g transform="translate(261.272155, 280.263644)"><g><path d="M 8.625 0.578125 C 7.101562 0.578125 5.78125 0.257812 4.65625 -0.375 C 3.539062 -1.019531 2.675781 -1.910156 2.0625 -3.046875 C 1.445312 -4.191406 1.140625 -5.519531 1.140625 -7.03125 C 1.140625 -8.4375 1.367188 -9.796875 1.828125 -11.109375 C 2.285156 -12.429688 2.929688 -13.617188 3.765625 -14.671875 C 4.597656 -15.734375 5.59375 -16.566406 6.75 -17.171875 C 7.90625 -17.785156 9.1875 -18.09375 10.59375 -18.09375 C 11.882812 -18.09375 13 -17.835938 13.9375 -17.328125 C 14.882812 -16.828125 15.640625 -16.125 16.203125 -15.21875 C 16.765625 -14.320312 17.113281 -13.273438 17.25 -12.078125 L 15.265625 -11.765625 C 15.128906 -13.140625 14.660156 -14.234375 13.859375 -15.046875 C 13.054688 -15.867188 11.929688 -16.28125 10.484375 -16.28125 C 9.390625 -16.28125 8.394531 -16.019531 7.5 -15.5 C 6.613281 -14.976562 5.84375 -14.273438 5.1875 -13.390625 C 4.539062 -12.515625 4.046875 -11.535156 3.703125 -10.453125 C 3.367188 -9.378906 3.203125 -8.289062 3.203125 -7.1875 C 3.203125 -5.375 3.695312 -3.929688 4.6875 -2.859375 C 5.675781 -1.785156 7.015625 -1.25 8.703125 -1.25 C 9.773438 -1.25 10.789062 -1.503906 11.75 -2.015625 C 12.71875 -2.523438 13.554688 -3.21875 14.265625 -4.09375 C 14.984375 -4.976562 15.5 -5.96875 15.8125 -7.0625 L 17.671875 -6.4375 C 17.273438 -5.082031 16.617188 -3.878906 15.703125 -2.828125 C 14.796875 -1.773438 13.726562 -0.941406 12.5 -0.328125 C 11.28125 0.273438 9.988281 0.578125 8.625 0.578125 Z M 8.625 0.578125 "/></g></g></g><g fill="#3d3d3d" fill-opacity="1"><g transform="translate(283.494967, 280.263644)"><g><path d="M 0.5 0 L 3.28125 -17.53125 L 14.46875 -17.53125 L 14.1875 -15.71875 L 4.96875 -15.71875 L 4.046875 -9.921875 L 12.28125 -9.921875 L 12 -8.171875 L 3.78125 -8.171875 L 2.78125 -1.8125 L 12.234375 -1.8125 L 11.953125 0 Z M 0.5 0 "/></g></g></g></svg>