<svg xmlns="http://www.w3.org/2000/svg" xmlns:xlink="http://www.w3.org/1999/xlink" width="500" zoomAndPan="magnify" viewBox="0 0 375 374.999991" height="500" preserveAspectRatio="xMidYMid meet" version="1.0"><defs><g/><clipPath id="c20bef29b2"><path d="M 95.894531 37.5 L 278.894531 37.5 L 278.894531 228.75 L 95.894531 228.75 Z M 95.894531 37.5 " clip-rule="nonzero"/></clipPath></defs><g clip-path="url(#c20bef29b2)"><path fill="#357942" d="M 176.703125 179.738281 C 159.742188 178.265625 144.257812 187.847656 138.355469 203.324219 C 154.582031 203.691406 169.699219 194.480469 176.703125 179.738281 Z M 198.457031 179.738281 C 215.046875 178.265625 230.902344 187.847656 236.800781 203.324219 C 220.578125 203.691406 205.460938 194.480469 198.457031 179.738281 Z M 187.394531 37.5 C 207.304688 67.347656 207.304688 106.777344 187.394531 136.625 C 167.484375 106.777344 167.484375 67.347656 187.394531 37.5 Z M 187.394531 153.945312 C 201.40625 118.199219 229.796875 90.933594 265.5625 77.667969 C 257.449219 109.355469 237.90625 136.996094 210.625 155.417969 C 194.03125 167.578125 188.5 182.6875 193.664062 200.375 L 197.351562 215.851562 C 198.457031 219.90625 196.980469 224.328125 193.292969 226.90625 C 191.820312 228.011719 189.609375 228.75 187.394531 228.75 C 185.550781 228.75 183.339844 228.011719 181.863281 226.90625 C 178.175781 224.328125 176.703125 219.90625 177.808594 215.851562 L 181.128906 200.375 C 186.289062 182.6875 180.757812 167.578125 164.535156 155.417969 C 137.25 136.996094 117.710938 109.355469 109.597656 77.667969 C 145.363281 90.933594 173.753906 118.199219 187.394531 153.945312 Z M 278.835938 149.890625 C 259.660156 171.632812 229.425781 180.476562 201.039062 173.105469 C 219.105469 148.785156 250.8125 139.574219 278.835938 149.890625 Z M 95.957031 149.890625 C 115.496094 171.632812 145.730469 180.476562 174.121094 173.105469 C 156.054688 148.785156 124.347656 139.574219 95.957031 149.890625 Z M 95.957031 149.890625 " fill-opacity="1" fill-rule="evenodd"/></g><path fill="#86c44d" d="M 187.394531 127.78125 C 199.5625 102.722656 199.5625 73.613281 187.394531 48.1875 Z M 181.496094 211.800781 C 180.390625 219.167969 182.972656 223.960938 189.609375 225.800781 C 181.128906 225.433594 178.175781 221.011719 181.496094 211.800781 Z M 205.460938 184.160156 C 210.625 191.53125 218.734375 196.691406 227.585938 197.796875 Z M 213.574219 169.054688 C 232.746094 171.632812 251.917969 166.105469 266.296875 153.578125 Z M 197.351562 152.839844 C 223.527344 140.3125 243.4375 118.199219 253.761719 90.933594 Z M 169.328125 184.160156 C 159.003906 184.898438 149.417969 190.425781 144.257812 199.640625 Z M 162.324219 169.421875 C 148.3125 155.789062 128.035156 149.890625 108.859375 153.578125 Z M 181.128906 159.839844 C 169.699219 130.730469 148.679688 106.410156 121.398438 91.300781 Z M 181.128906 159.839844 " fill-opacity="1" fill-rule="evenodd"/><g fill="#000000" fill-opacity="1"><g transform="translate(50.585775, 272.162781)"><g><path d="M 1.3125 -2.015625 C 2.601562 -2.015625 3.40625 -2.125 3.71875 -2.34375 C 4.039062 -2.570312 4.234375 -2.8125 4.296875 -3.0625 C 4.359375 -3.320312 4.390625 -3.632812 4.390625 -4 L 4.390625 -23.421875 C 4.390625 -24.171875 4.160156 -24.6875 3.703125 -24.96875 C 3.253906 -25.257812 2.457031 -25.40625 1.3125 -25.40625 L 1.3125 -27.421875 L 20.84375 -27.421875 L 21.546875 -20.78125 L 18.90625 -20.765625 L 18.40625 -22.828125 C 18.164062 -23.816406 17.914062 -24.441406 17.65625 -24.703125 C 17.207031 -25.148438 16.445312 -25.375 15.375 -25.375 L 8.5 -25.375 L 8.5 -14.734375 L 11.859375 -14.734375 C 13.234375 -14.734375 14.078125 -14.820312 14.390625 -15 C 14.703125 -15.1875 14.914062 -15.453125 15.03125 -15.796875 C 15.144531 -16.140625 15.203125 -16.632812 15.203125 -17.28125 L 17.578125 -17.28125 L 17.578125 -10.203125 L 15.203125 -10.203125 C 15.203125 -11.335938 14.976562 -12.039062 14.53125 -12.3125 C 14.09375 -12.582031 13.203125 -12.71875 11.859375 -12.71875 L 8.5 -12.71875 L 8.5 -4.921875 C 8.5 -4.296875 8.546875 -3.796875 8.640625 -3.421875 C 8.734375 -3.046875 9.035156 -2.71875 9.546875 -2.4375 C 10.066406 -2.15625 11.628906 -2.015625 14.234375 -2.015625 L 14.234375 0 L 1.3125 0 Z M 1.3125 -2.015625 "/></g></g></g><g fill="#000000" fill-opacity="1"><g transform="translate(84.278103, 272.162781)"><g><path d="M 17.453125 -4.375 C 17.453125 -2.914062 17.738281 -2.1875 18.3125 -2.1875 C 18.863281 -2.1875 19.265625 -2.375 19.515625 -2.75 C 19.773438 -3.125 19.90625 -3.796875 19.90625 -4.765625 L 21.828125 -4.765625 C 21.835938 -4.609375 21.84375 -4.359375 21.84375 -4.015625 C 21.84375 -2.921875 21.566406 -1.972656 21.015625 -1.171875 C 20.347656 -0.148438 19.285156 0.359375 17.828125 0.359375 C 16.867188 0.359375 16.054688 0.09375 15.390625 -0.4375 C 14.722656 -0.976562 14.257812 -1.6875 14 -2.5625 C 12.238281 -0.613281 10.003906 0.359375 7.296875 0.359375 C 5.804688 0.359375 4.507812 -0.0703125 3.40625 -0.9375 C 2.300781 -1.8125 1.75 -3.03125 1.75 -4.59375 C 1.75 -7.289062 3.75 -9.285156 7.75 -10.578125 C 10.28125 -11.390625 11.796875 -11.945312 12.296875 -12.25 C 12.796875 -12.5625 13.125 -12.878906 13.28125 -13.203125 C 13.4375 -13.523438 13.515625 -13.890625 13.515625 -14.296875 C 13.515625 -15.015625 13.160156 -15.613281 12.453125 -16.09375 C 11.742188 -16.570312 10.820312 -16.8125 9.6875 -16.8125 C 8.550781 -16.8125 7.550781 -16.507812 6.6875 -15.90625 C 7.300781 -15.457031 7.609375 -14.878906 7.609375 -14.171875 C 7.609375 -13.460938 7.375 -12.894531 6.90625 -12.46875 C 6.4375 -12.039062 5.867188 -11.828125 5.203125 -11.828125 C 4.535156 -11.828125 3.984375 -12.023438 3.546875 -12.421875 C 3.117188 -12.828125 2.90625 -13.390625 2.90625 -14.109375 C 2.90625 -15.535156 3.625 -16.691406 5.0625 -17.578125 C 6.5 -18.460938 8.25 -18.90625 10.3125 -18.90625 C 13.988281 -18.90625 16.238281 -17.707031 17.0625 -15.3125 C 17.320312 -14.519531 17.453125 -13.609375 17.453125 -12.578125 Z M 9.390625 -8.921875 C 8.316406 -8.453125 7.507812 -7.851562 6.96875 -7.125 C 6.4375 -6.40625 6.171875 -5.617188 6.171875 -4.765625 C 6.171875 -3.910156 6.398438 -3.265625 6.859375 -2.828125 C 7.328125 -2.390625 7.910156 -2.171875 8.609375 -2.171875 C 10.023438 -2.171875 11.195312 -2.664062 12.125 -3.65625 C 13.050781 -4.65625 13.515625 -6.046875 13.515625 -7.828125 L 13.515625 -10.640625 C 12.734375 -10.234375 11.90625 -9.863281 11.03125 -9.53125 C 10.15625 -9.207031 9.609375 -9.003906 9.390625 -8.921875 Z M 9.390625 -8.921875 "/></g></g></g><g fill="#000000" fill-opacity="1"><g transform="translate(116.14281, 272.162781)"><g><path d="M 1.5 -2.015625 C 2.550781 -2.015625 3.207031 -2.117188 3.46875 -2.328125 C 3.738281 -2.546875 3.898438 -2.773438 3.953125 -3.015625 C 4.015625 -3.253906 4.046875 -3.5625 4.046875 -3.9375 L 4.046875 -14 C 4.046875 -14.875 3.96875 -15.445312 3.8125 -15.71875 C 3.65625 -15.988281 3.242188 -16.125 2.578125 -16.125 L 1.46875 -16.125 L 1.46875 -18.140625 C 2.625 -18.140625 3.519531 -18.222656 4.15625 -18.390625 C 4.800781 -18.566406 5.257812 -18.695312 5.53125 -18.78125 C 5.800781 -18.863281 6.097656 -18.90625 6.421875 -18.90625 C 7.035156 -18.90625 7.445312 -18.722656 7.65625 -18.359375 C 7.875 -17.992188 7.984375 -17.394531 7.984375 -16.5625 L 7.984375 -16.203125 C 9.035156 -17.429688 10.222656 -18.257812 11.546875 -18.6875 C 12.023438 -18.832031 12.503906 -18.90625 12.984375 -18.90625 C 13.890625 -18.90625 14.59375 -18.640625 15.09375 -18.109375 C 15.601562 -17.585938 15.859375 -16.941406 15.859375 -16.171875 C 15.859375 -15.410156 15.613281 -14.785156 15.125 -14.296875 C 14.644531 -13.804688 14.054688 -13.5625 13.359375 -13.5625 C 12.679688 -13.5625 12.117188 -13.804688 11.671875 -14.296875 C 11.222656 -14.785156 11.023438 -15.394531 11.078125 -16.125 C 10.578125 -16.050781 10.039062 -15.820312 9.46875 -15.4375 C 8.90625 -15.050781 8.410156 -14.53125 7.984375 -13.875 L 7.984375 -4.09375 C 7.984375 -3.632812 8.019531 -3.265625 8.09375 -2.984375 C 8.175781 -2.710938 8.390625 -2.484375 8.734375 -2.296875 C 9.085938 -2.109375 10.132812 -2.015625 11.875 -2.015625 L 11.875 0 L 1.5 0 Z M 1.5 -2.015625 "/></g></g></g><g fill="#000000" fill-opacity="1"><g transform="translate(142.981556, 272.162781)"><g><path d="M 25.703125 -18.890625 C 29.285156 -18.890625 31.078125 -16.273438 31.078125 -11.046875 L 31.078125 -3.96875 C 31.078125 -3.164062 31.191406 -2.640625 31.421875 -2.390625 C 31.648438 -2.140625 32.285156 -2.015625 33.328125 -2.015625 L 33.328125 0 L 24.671875 0 L 24.671875 -2.015625 C 25.785156 -2.015625 26.453125 -2.125 26.671875 -2.34375 C 26.898438 -2.570312 27.03125 -2.804688 27.0625 -3.046875 C 27.101562 -3.296875 27.125 -3.601562 27.125 -3.96875 L 27.125 -10.796875 C 27.125 -12.503906 26.988281 -13.671875 26.71875 -14.296875 C 26.457031 -14.929688 26.113281 -15.398438 25.6875 -15.703125 C 25.257812 -16.003906 24.773438 -16.15625 24.234375 -16.15625 C 23.265625 -16.15625 22.332031 -15.957031 21.4375 -15.5625 C 20.550781 -15.175781 19.847656 -14.671875 19.328125 -14.046875 C 19.492188 -13.148438 19.578125 -12.148438 19.578125 -11.046875 L 19.578125 -3.96875 C 19.578125 -3.164062 19.691406 -2.640625 19.921875 -2.390625 C 20.148438 -2.140625 20.785156 -2.015625 21.828125 -2.015625 L 21.828125 0 L 13.1875 0 L 13.1875 -2.015625 C 14.289062 -2.015625 14.953125 -2.125 15.171875 -2.34375 C 15.398438 -2.570312 15.53125 -2.804688 15.5625 -3.046875 C 15.601562 -3.296875 15.625 -3.601562 15.625 -3.96875 L 15.625 -10.796875 C 15.625 -12.503906 15.488281 -13.671875 15.21875 -14.296875 C 14.957031 -14.929688 14.613281 -15.398438 14.1875 -15.703125 C 13.757812 -16.003906 13.273438 -16.15625 12.734375 -16.15625 C 11.816406 -16.15625 10.929688 -15.976562 10.078125 -15.625 C 9.222656 -15.269531 8.519531 -14.800781 7.96875 -14.21875 L 7.96875 -3.9375 C 7.96875 -3.164062 8.085938 -2.679688 8.328125 -2.484375 C 8.773438 -2.171875 9.578125 -2.015625 10.734375 -2.015625 L 10.734375 0 L 1.46875 0 L 1.46875 -2.015625 C 2.507812 -2.015625 3.164062 -2.117188 3.4375 -2.328125 C 3.707031 -2.546875 3.867188 -2.773438 3.921875 -3.015625 C 3.984375 -3.253906 4.015625 -3.5625 4.015625 -3.9375 L 4.015625 -13.890625 C 4.015625 -14.765625 3.9375 -15.335938 3.78125 -15.609375 C 3.632812 -15.878906 3.222656 -16.015625 2.546875 -16.015625 L 1.421875 -16.015625 L 1.421875 -18.03125 C 2.566406 -18.03125 3.472656 -18.113281 4.140625 -18.28125 C 4.804688 -18.457031 5.28125 -18.585938 5.5625 -18.671875 C 5.84375 -18.753906 6.144531 -18.796875 6.46875 -18.796875 C 7.09375 -18.796875 7.5 -18.609375 7.6875 -18.234375 C 7.875 -17.867188 7.96875 -17.273438 7.96875 -16.453125 L 7.96875 -16.421875 C 9.207031 -17.503906 10.71875 -18.257812 12.5 -18.6875 C 13.082031 -18.820312 13.648438 -18.890625 14.203125 -18.890625 C 16.378906 -18.890625 17.894531 -17.910156 18.75 -15.953125 C 20.113281 -17.222656 21.757812 -18.109375 23.6875 -18.609375 C 24.375 -18.796875 25.046875 -18.890625 25.703125 -18.890625 Z M 25.703125 -18.890625 "/></g></g></g><g fill="#000000" fill-opacity="1"><g transform="translate(187.8041, 272.162781)"><g/></g></g><g fill="#000000" fill-opacity="1"><g transform="translate(210.731741, 272.162781)"><g><path d="M 2.625 -23.421875 C 2.300781 -24.203125 1.9375 -24.726562 1.53125 -25 C 1.132812 -25.269531 0.347656 -25.40625 -0.828125 -25.40625 L -0.828125 -27.421875 L 10.65625 -27.421875 L 10.65625 -25.40625 C 9.03125 -25.40625 8.070312 -25.289062 7.78125 -25.0625 C 7.488281 -24.84375 7.351562 -24.609375 7.375 -24.359375 C 7.394531 -24.109375 7.476562 -23.796875 7.625 -23.421875 L 14.484375 -5.375 L 21.390625 -23.421875 C 21.671875 -24.148438 21.582031 -24.660156 21.125 -24.953125 C 20.675781 -25.253906 19.625 -25.40625 17.96875 -25.40625 L 17.96875 -27.421875 L 27.96875 -27.421875 L 27.96875 -25.40625 C 26.957031 -25.40625 26.195312 -25.253906 25.6875 -24.953125 C 25.175781 -24.648438 24.773438 -24.140625 24.484375 -23.421875 L 14.96875 0 L 12.578125 0 Z M 2.625 -23.421875 "/></g></g></g><g fill="#000000" fill-opacity="1"><g transform="translate(248.316895, 272.162781)"><g><path d="M 6.15625 -22.28125 C 5.363281 -22.28125 4.691406 -22.546875 4.140625 -23.078125 C 3.585938 -23.609375 3.3125 -24.257812 3.3125 -25.03125 C 3.3125 -25.800781 3.585938 -26.457031 4.140625 -27 C 4.703125 -27.550781 5.375 -27.828125 6.15625 -27.828125 C 6.9375 -27.828125 7.609375 -27.550781 8.171875 -27 C 8.734375 -26.457031 9.015625 -25.800781 9.015625 -25.03125 C 9.015625 -24.257812 8.734375 -23.609375 8.171875 -23.078125 C 7.617188 -22.546875 6.945312 -22.28125 6.15625 -22.28125 Z M 1.5 -2.015625 C 2.632812 -2.015625 3.34375 -2.117188 3.625 -2.328125 C 3.914062 -2.546875 4.085938 -2.773438 4.140625 -3.015625 C 4.203125 -3.253906 4.234375 -3.5625 4.234375 -3.9375 L 4.234375 -14 C 4.234375 -14.875 4.15625 -15.445312 4 -15.71875 C 3.851562 -15.988281 3.445312 -16.125 2.78125 -16.125 L 1.46875 -16.125 L 1.46875 -18.140625 C 2.65625 -18.140625 3.585938 -18.222656 4.265625 -18.390625 C 4.953125 -18.566406 5.4375 -18.695312 5.71875 -18.78125 C 6 -18.863281 6.304688 -18.90625 6.640625 -18.90625 C 7.273438 -18.90625 7.691406 -18.71875 7.890625 -18.34375 C 8.085938 -17.96875 8.1875 -17.375 8.1875 -16.5625 L 8.1875 -3.9375 C 8.1875 -3.164062 8.3125 -2.679688 8.5625 -2.484375 C 8.96875 -2.171875 9.75 -2.015625 10.90625 -2.015625 L 10.90625 0 L 1.5 0 Z M 1.5 -2.015625 "/></g></g></g><g fill="#000000" fill-opacity="1"><g transform="translate(271.006933, 272.162781)"><g><path d="M 6.96875 -2.140625 C 6.4375 -1.640625 6.171875 -0.925781 6.171875 0 L 3.46875 0 L 3.46875 -23.59375 C 3.46875 -24.476562 3.390625 -25.050781 3.234375 -25.3125 C 3.085938 -25.582031 2.675781 -25.71875 2 -25.71875 L 0.6875 -25.71875 L 0.6875 -27.734375 C 1.875 -27.734375 2.804688 -27.820312 3.484375 -28 C 4.160156 -28.175781 4.640625 -28.300781 4.921875 -28.375 C 5.210938 -28.457031 5.519531 -28.5 5.84375 -28.5 C 6.488281 -28.5 6.910156 -28.3125 7.109375 -27.9375 C 7.316406 -27.570312 7.421875 -26.976562 7.421875 -26.15625 L 7.421875 -16.359375 C 8.722656 -18.054688 10.585938 -18.90625 13.015625 -18.90625 C 15.453125 -18.90625 17.382812 -18.125 18.8125 -16.5625 C 20.25 -15.007812 20.96875 -12.722656 20.96875 -9.703125 C 20.96875 -6.679688 20.21875 -4.25 18.71875 -2.40625 C 17.226562 -0.5625 15.144531 0.359375 12.46875 0.359375 C 10.257812 0.359375 8.425781 -0.472656 6.96875 -2.140625 Z M 7.328125 -9.046875 C 7.328125 -6.816406 7.75 -5.054688 8.59375 -3.765625 C 9.445312 -2.472656 10.597656 -1.828125 12.046875 -1.828125 C 13.484375 -1.828125 14.617188 -2.488281 15.453125 -3.8125 C 16.285156 -5.144531 16.703125 -6.910156 16.703125 -9.109375 C 16.703125 -12.597656 15.875 -14.925781 14.21875 -16.09375 C 13.625 -16.488281 12.921875 -16.6875 12.109375 -16.6875 C 11.296875 -16.6875 10.597656 -16.488281 10.015625 -16.09375 C 9.429688 -15.707031 8.945312 -15.175781 8.5625 -14.5 C 7.738281 -13.09375 7.328125 -11.273438 7.328125 -9.046875 Z M 7.328125 -9.046875 "/></g></g></g><g fill="#000000" fill-opacity="1"><g transform="translate(304.004757, 272.162781)"><g><path d="M 18.703125 -8.421875 L 6.015625 -8.421875 C 6.015625 -6.328125 6.507812 -4.707031 7.5 -3.5625 C 8.5 -2.414062 9.726562 -1.84375 11.1875 -1.84375 C 13.144531 -1.84375 14.550781 -2.65625 15.40625 -4.28125 L 18.140625 -4.296875 C 17.859375 -2.992188 17.054688 -1.890625 15.734375 -0.984375 C 14.410156 -0.0859375 12.625 0.359375 10.375 0.359375 C 8.132812 0.359375 6.195312 -0.332031 4.5625 -1.71875 C 2.613281 -3.382812 1.640625 -5.734375 1.640625 -8.765625 C 1.640625 -11.804688 2.414062 -14.253906 3.96875 -16.109375 C 5.53125 -17.972656 7.757812 -18.90625 10.65625 -18.90625 C 14.46875 -18.90625 16.9375 -17.367188 18.0625 -14.296875 C 18.507812 -13.066406 18.734375 -11.898438 18.734375 -10.796875 C 18.734375 -9.703125 18.722656 -8.910156 18.703125 -8.421875 Z M 14.484375 -11.171875 C 14.484375 -14.898438 13.210938 -16.765625 10.671875 -16.765625 C 9.242188 -16.765625 8.128906 -16.207031 7.328125 -15.09375 C 6.535156 -13.988281 6.101562 -12.457031 6.03125 -10.5 L 14.453125 -10.5 C 14.472656 -10.726562 14.484375 -10.953125 14.484375 -11.171875 Z M 14.484375 -11.171875 "/></g></g></g><g fill="#000000" fill-opacity="1"><g transform="translate(91.398083, 299.32955)"><g><path d="M 1.578125 0 C 1.359375 0 1.25 -0.113281 1.25 -0.34375 L 1.25 -13.6875 C 1.25 -13.914062 1.359375 -14.03125 1.578125 -14.03125 L 3.734375 -14.03125 C 3.898438 -14.03125 4.03125 -13.957031 4.125 -13.8125 L 7.03125 -9.125 C 7.0625 -9.082031 7.09375 -9.0625 7.125 -9.0625 C 7.15625 -9.0625 7.179688 -9.082031 7.203125 -9.125 L 10.140625 -13.8125 C 10.234375 -13.957031 10.367188 -14.03125 10.546875 -14.03125 L 12.6875 -14.03125 C 12.914062 -14.03125 13.03125 -13.914062 13.03125 -13.6875 L 13.03125 -0.34375 C 13.03125 -0.113281 12.914062 0 12.6875 0 L 10.546875 0 C 10.316406 0 10.203125 -0.113281 10.203125 -0.34375 L 10.203125 -9.015625 C 10.203125 -9.066406 10.1875 -9.097656 10.15625 -9.109375 C 10.125 -9.128906 10.09375 -9.113281 10.0625 -9.0625 L 8.03125 -5.75 C 7.945312 -5.601562 7.816406 -5.53125 7.640625 -5.53125 L 6.609375 -5.53125 C 6.441406 -5.53125 6.3125 -5.601562 6.21875 -5.75 L 4.203125 -9.0625 C 4.179688 -9.113281 4.148438 -9.128906 4.109375 -9.109375 C 4.078125 -9.097656 4.0625 -9.066406 4.0625 -9.015625 L 4.0625 -0.34375 C 4.0625 -0.113281 3.953125 0 3.734375 0 Z M 1.578125 0 "/></g></g></g><g fill="#000000" fill-opacity="1"><g transform="translate(112.660827, 299.32955)"><g><path d="M 5.171875 -10.46875 C 6.035156 -10.46875 6.804688 -10.316406 7.484375 -10.015625 C 8.171875 -9.710938 8.703125 -9.300781 9.078125 -8.78125 C 9.460938 -8.257812 9.65625 -7.675781 9.65625 -7.03125 L 9.65625 -0.34375 C 9.65625 -0.113281 9.546875 0 9.328125 0 L 7.171875 0 C 6.953125 0 6.84375 -0.113281 6.84375 -0.34375 L 6.84375 -0.828125 C 6.84375 -0.878906 6.828125 -0.90625 6.796875 -0.90625 C 6.765625 -0.914062 6.734375 -0.898438 6.703125 -0.859375 C 6.085938 -0.179688 5.171875 0.15625 3.953125 0.15625 C 2.921875 0.15625 2.085938 -0.09375 1.453125 -0.59375 C 0.828125 -1.101562 0.515625 -1.851562 0.515625 -2.84375 C 0.515625 -3.875 0.875 -4.671875 1.59375 -5.234375 C 2.320312 -5.804688 3.351562 -6.09375 4.6875 -6.09375 L 6.71875 -6.09375 C 6.800781 -6.09375 6.84375 -6.132812 6.84375 -6.21875 L 6.84375 -6.640625 C 6.84375 -7.078125 6.703125 -7.414062 6.421875 -7.65625 C 6.148438 -7.90625 5.753906 -8.03125 5.234375 -8.03125 C 4.828125 -8.03125 4.492188 -7.960938 4.234375 -7.828125 C 3.972656 -7.703125 3.796875 -7.519531 3.703125 -7.28125 C 3.628906 -7.09375 3.5 -7.003906 3.3125 -7.015625 L 1.078125 -7.296875 C 0.972656 -7.304688 0.890625 -7.332031 0.828125 -7.375 C 0.765625 -7.425781 0.742188 -7.492188 0.765625 -7.578125 C 0.828125 -8.128906 1.054688 -8.625 1.453125 -9.0625 C 1.847656 -9.5 2.367188 -9.84375 3.015625 -10.09375 C 3.660156 -10.34375 4.378906 -10.46875 5.171875 -10.46875 Z M 4.765625 -1.9375 C 5.347656 -1.9375 5.835938 -2.085938 6.234375 -2.390625 C 6.640625 -2.703125 6.84375 -3.101562 6.84375 -3.59375 L 6.84375 -4.296875 C 6.84375 -4.367188 6.800781 -4.40625 6.71875 -4.40625 L 5.296875 -4.40625 C 4.691406 -4.40625 4.210938 -4.289062 3.859375 -4.0625 C 3.515625 -3.84375 3.34375 -3.523438 3.34375 -3.109375 C 3.34375 -2.742188 3.472656 -2.457031 3.734375 -2.25 C 3.992188 -2.039062 4.335938 -1.9375 4.765625 -1.9375 Z M 4.765625 -1.9375 "/></g></g></g><g fill="#000000" fill-opacity="1"><g transform="translate(130.256414, 299.32955)"><g><path d="M 6.171875 -10.4375 C 6.597656 -10.4375 6.953125 -10.359375 7.234375 -10.203125 C 7.398438 -10.117188 7.460938 -9.976562 7.421875 -9.78125 L 7.03125 -7.671875 C 7.019531 -7.554688 6.984375 -7.484375 6.921875 -7.453125 C 6.867188 -7.429688 6.773438 -7.429688 6.640625 -7.453125 C 6.421875 -7.503906 6.222656 -7.53125 6.046875 -7.53125 C 5.953125 -7.53125 5.800781 -7.519531 5.59375 -7.5 C 5.113281 -7.457031 4.707031 -7.28125 4.375 -6.96875 C 4.039062 -6.65625 3.875 -6.238281 3.875 -5.71875 L 3.875 -0.34375 C 3.875 -0.113281 3.757812 0 3.53125 0 L 1.390625 0 C 1.160156 0 1.046875 -0.113281 1.046875 -0.34375 L 1.046875 -9.96875 C 1.046875 -10.1875 1.160156 -10.296875 1.390625 -10.296875 L 3.53125 -10.296875 C 3.757812 -10.296875 3.875 -10.1875 3.875 -9.96875 L 3.875 -9.34375 C 3.875 -9.289062 3.882812 -9.253906 3.90625 -9.234375 C 3.9375 -9.222656 3.972656 -9.238281 4.015625 -9.28125 C 4.546875 -10.050781 5.265625 -10.4375 6.171875 -10.4375 Z M 6.171875 -10.4375 "/></g></g></g><g fill="#000000" fill-opacity="1"><g transform="translate(144.946324, 299.32955)"><g><path d="M 1.390625 0 C 1.160156 0 1.046875 -0.113281 1.046875 -0.34375 L 1.046875 -13.6875 C 1.046875 -13.914062 1.160156 -14.03125 1.390625 -14.03125 L 3.53125 -14.03125 C 3.757812 -14.03125 3.875 -13.914062 3.875 -13.6875 L 3.875 -7.078125 C 3.875 -7.023438 3.890625 -6.992188 3.921875 -6.984375 C 3.953125 -6.972656 3.984375 -6.988281 4.015625 -7.03125 L 6.671875 -10.109375 C 6.804688 -10.234375 6.945312 -10.296875 7.09375 -10.296875 L 9.515625 -10.296875 C 9.609375 -10.296875 9.679688 -10.28125 9.734375 -10.25 C 9.796875 -10.21875 9.828125 -10.171875 9.828125 -10.109375 C 9.828125 -10.023438 9.800781 -9.953125 9.75 -9.890625 L 7.28125 -6.796875 C 7.238281 -6.753906 7.226562 -6.703125 7.25 -6.640625 L 10.203125 -0.40625 L 10.25 -0.234375 C 10.25 -0.078125 10.144531 0 9.9375 0 L 7.671875 0 C 7.484375 0 7.351562 -0.0859375 7.28125 -0.265625 L 5.328125 -4.84375 C 5.285156 -4.925781 5.234375 -4.9375 5.171875 -4.875 L 3.921875 -3.28125 C 3.890625 -3.226562 3.875 -3.179688 3.875 -3.140625 L 3.875 -0.34375 C 3.875 -0.113281 3.757812 0 3.53125 0 Z M 1.390625 0 "/></g></g></g><g fill="#000000" fill-opacity="1"><g transform="translate(162.642105, 299.32955)"><g><path d="M 6.015625 -2.21875 C 6.898438 -2.257812 7.570312 -2.566406 8.03125 -3.140625 C 8.113281 -3.234375 8.203125 -3.28125 8.296875 -3.28125 C 8.378906 -3.28125 8.453125 -3.25 8.515625 -3.1875 L 9.65625 -2.078125 C 9.738281 -2.003906 9.78125 -1.925781 9.78125 -1.84375 C 9.78125 -1.75 9.753906 -1.671875 9.703125 -1.609375 C 9.265625 -1.054688 8.695312 -0.625 8 -0.3125 C 7.3125 0 6.5625 0.15625 5.75 0.15625 C 4.519531 0.15625 3.5 -0.15625 2.6875 -0.78125 C 1.882812 -1.40625 1.34375 -2.269531 1.0625 -3.375 C 0.90625 -3.957031 0.828125 -4.578125 0.828125 -5.234375 C 0.828125 -6.003906 0.898438 -6.660156 1.046875 -7.203125 C 1.304688 -8.191406 1.84375 -8.984375 2.65625 -9.578125 C 3.46875 -10.179688 4.425781 -10.484375 5.53125 -10.484375 C 6.84375 -10.484375 7.878906 -10.09375 8.640625 -9.3125 C 9.410156 -8.539062 9.910156 -7.453125 10.140625 -6.046875 C 10.191406 -5.609375 10.234375 -5.125 10.265625 -4.59375 C 10.265625 -4.363281 10.148438 -4.25 9.921875 -4.25 L 3.765625 -4.25 C 3.691406 -4.25 3.65625 -4.207031 3.65625 -4.125 C 3.6875 -3.84375 3.726562 -3.640625 3.78125 -3.515625 C 3.914062 -3.097656 4.179688 -2.773438 4.578125 -2.546875 C 4.972656 -2.328125 5.453125 -2.21875 6.015625 -2.21875 Z M 5.5 -8.03125 C 5.0625 -8.03125 4.695312 -7.925781 4.40625 -7.71875 C 4.125 -7.519531 3.929688 -7.234375 3.828125 -6.859375 C 3.765625 -6.597656 3.722656 -6.429688 3.703125 -6.359375 C 3.691406 -6.273438 3.726562 -6.234375 3.8125 -6.234375 L 7.21875 -6.234375 C 7.28125 -6.234375 7.3125 -6.257812 7.3125 -6.3125 C 7.3125 -6.457031 7.285156 -6.613281 7.234375 -6.78125 C 7.117188 -7.164062 6.910156 -7.46875 6.609375 -7.6875 C 6.316406 -7.914062 5.945312 -8.03125 5.5 -8.03125 Z M 5.5 -8.03125 "/></g></g></g><g fill="#000000" fill-opacity="1"><g transform="translate(180.618438, 299.32955)"><g><path d="M 6.953125 -8.375 C 6.953125 -8.144531 6.835938 -8.03125 6.609375 -8.03125 L 4.8125 -8.03125 C 4.726562 -8.03125 4.6875 -7.992188 4.6875 -7.921875 L 4.6875 -3.765625 C 4.6875 -3.328125 4.773438 -3.003906 4.953125 -2.796875 C 5.140625 -2.585938 5.429688 -2.484375 5.828125 -2.484375 L 6.390625 -2.484375 C 6.617188 -2.484375 6.734375 -2.367188 6.734375 -2.140625 L 6.734375 -0.421875 C 6.734375 -0.203125 6.617188 -0.0820312 6.390625 -0.0625 C 5.890625 -0.03125 5.523438 -0.015625 5.296875 -0.015625 C 4.179688 -0.015625 3.347656 -0.203125 2.796875 -0.578125 C 2.253906 -0.953125 1.976562 -1.648438 1.96875 -2.671875 L 1.96875 -7.921875 C 1.96875 -7.992188 1.925781 -8.03125 1.84375 -8.03125 L 0.828125 -8.03125 C 0.597656 -8.03125 0.484375 -8.144531 0.484375 -8.375 L 0.484375 -9.96875 C 0.484375 -10.1875 0.597656 -10.296875 0.828125 -10.296875 L 1.84375 -10.296875 C 1.925781 -10.296875 1.96875 -10.335938 1.96875 -10.421875 L 1.96875 -12.6875 C 1.96875 -12.914062 2.082031 -13.03125 2.3125 -13.03125 L 4.34375 -13.03125 C 4.570312 -13.03125 4.6875 -12.914062 4.6875 -12.6875 L 4.6875 -10.421875 C 4.6875 -10.335938 4.726562 -10.296875 4.8125 -10.296875 L 6.609375 -10.296875 C 6.835938 -10.296875 6.953125 -10.1875 6.953125 -9.96875 Z M 6.953125 -8.375 "/></g></g></g><g fill="#000000" fill-opacity="1"><g transform="translate(195.248231, 299.32955)"><g/></g></g><g fill="#000000" fill-opacity="1"><g transform="translate(206.270974, 299.32955)"><g><path d="M 7.015625 -14.046875 C 7.898438 -14.046875 8.675781 -13.863281 9.34375 -13.5 C 10.007812 -13.144531 10.523438 -12.632812 10.890625 -11.96875 C 11.265625 -11.3125 11.453125 -10.554688 11.453125 -9.703125 C 11.453125 -8.859375 11.257812 -8.113281 10.875 -7.46875 C 10.488281 -6.832031 9.953125 -6.335938 9.265625 -5.984375 C 8.578125 -5.628906 7.785156 -5.453125 6.890625 -5.453125 L 4.0625 -5.453125 C 3.988281 -5.453125 3.953125 -5.410156 3.953125 -5.328125 L 3.953125 -0.34375 C 3.953125 -0.113281 3.835938 0 3.609375 0 L 1.46875 0 C 1.238281 0 1.125 -0.113281 1.125 -0.34375 L 1.125 -13.71875 C 1.125 -13.9375 1.238281 -14.046875 1.46875 -14.046875 Z M 6.59375 -7.71875 C 7.207031 -7.71875 7.703125 -7.894531 8.078125 -8.25 C 8.453125 -8.601562 8.640625 -9.066406 8.640625 -9.640625 C 8.640625 -10.234375 8.453125 -10.707031 8.078125 -11.0625 C 7.703125 -11.425781 7.207031 -11.609375 6.59375 -11.609375 L 4.0625 -11.609375 C 3.988281 -11.609375 3.953125 -11.566406 3.953125 -11.484375 L 3.953125 -7.84375 C 3.953125 -7.757812 3.988281 -7.71875 4.0625 -7.71875 Z M 6.59375 -7.71875 "/></g></g></g><g fill="#000000" fill-opacity="1"><g transform="translate(225.249259, 299.32955)"><g><path d="M 1.421875 0 C 1.191406 0 1.078125 -0.113281 1.078125 -0.34375 L 1.078125 -13.6875 C 1.078125 -13.914062 1.191406 -14.03125 1.421875 -14.03125 L 3.5625 -14.03125 C 3.789062 -14.03125 3.90625 -13.914062 3.90625 -13.6875 L 3.90625 -0.34375 C 3.90625 -0.113281 3.789062 0 3.5625 0 Z M 1.421875 0 "/></g></g></g><g fill="#000000" fill-opacity="1"><g transform="translate(237.253928, 299.32955)"><g><path d="M 5.171875 -10.46875 C 6.035156 -10.46875 6.804688 -10.316406 7.484375 -10.015625 C 8.171875 -9.710938 8.703125 -9.300781 9.078125 -8.78125 C 9.460938 -8.257812 9.65625 -7.675781 9.65625 -7.03125 L 9.65625 -0.34375 C 9.65625 -0.113281 9.546875 0 9.328125 0 L 7.171875 0 C 6.953125 0 6.84375 -0.113281 6.84375 -0.34375 L 6.84375 -0.828125 C 6.84375 -0.878906 6.828125 -0.90625 6.796875 -0.90625 C 6.765625 -0.914062 6.734375 -0.898438 6.703125 -0.859375 C 6.085938 -0.179688 5.171875 0.15625 3.953125 0.15625 C 2.921875 0.15625 2.085938 -0.09375 1.453125 -0.59375 C 0.828125 -1.101562 0.515625 -1.851562 0.515625 -2.84375 C 0.515625 -3.875 0.875 -4.671875 1.59375 -5.234375 C 2.320312 -5.804688 3.351562 -6.09375 4.6875 -6.09375 L 6.71875 -6.09375 C 6.800781 -6.09375 6.84375 -6.132812 6.84375 -6.21875 L 6.84375 -6.640625 C 6.84375 -7.078125 6.703125 -7.414062 6.421875 -7.65625 C 6.148438 -7.90625 5.753906 -8.03125 5.234375 -8.03125 C 4.828125 -8.03125 4.492188 -7.960938 4.234375 -7.828125 C 3.972656 -7.703125 3.796875 -7.519531 3.703125 -7.28125 C 3.628906 -7.09375 3.5 -7.003906 3.3125 -7.015625 L 1.078125 -7.296875 C 0.972656 -7.304688 0.890625 -7.332031 0.828125 -7.375 C 0.765625 -7.425781 0.742188 -7.492188 0.765625 -7.578125 C 0.828125 -8.128906 1.054688 -8.625 1.453125 -9.0625 C 1.847656 -9.5 2.367188 -9.84375 3.015625 -10.09375 C 3.660156 -10.34375 4.378906 -10.46875 5.171875 -10.46875 Z M 4.765625 -1.9375 C 5.347656 -1.9375 5.835938 -2.085938 6.234375 -2.390625 C 6.640625 -2.703125 6.84375 -3.101562 6.84375 -3.59375 L 6.84375 -4.296875 C 6.84375 -4.367188 6.800781 -4.40625 6.71875 -4.40625 L 5.296875 -4.40625 C 4.691406 -4.40625 4.210938 -4.289062 3.859375 -4.0625 C 3.515625 -3.84375 3.34375 -3.523438 3.34375 -3.109375 C 3.34375 -2.742188 3.472656 -2.457031 3.734375 -2.25 C 3.992188 -2.039062 4.335938 -1.9375 4.765625 -1.9375 Z M 4.765625 -1.9375 "/></g></g></g><g fill="#000000" fill-opacity="1"><g transform="translate(254.849515, 299.32955)"><g><path d="M 5.578125 0.15625 C 4.503906 0.15625 3.578125 -0.109375 2.796875 -0.640625 C 2.015625 -1.171875 1.457031 -1.90625 1.125 -2.84375 C 0.894531 -3.507812 0.78125 -4.300781 0.78125 -5.21875 C 0.78125 -6.113281 0.894531 -6.882812 1.125 -7.53125 C 1.445312 -8.445312 2 -9.164062 2.78125 -9.6875 C 3.570312 -10.207031 4.503906 -10.46875 5.578125 -10.46875 C 6.640625 -10.46875 7.578125 -10.195312 8.390625 -9.65625 C 9.203125 -9.125 9.738281 -8.453125 10 -7.640625 C 10.082031 -7.453125 10.132812 -7.242188 10.15625 -7.015625 L 10.15625 -6.96875 C 10.15625 -6.800781 10.054688 -6.695312 9.859375 -6.65625 L 7.765625 -6.328125 L 7.65625 -6.3125 C 7.5 -6.3125 7.40625 -6.394531 7.375 -6.5625 L 7.3125 -6.84375 C 7.21875 -7.1875 7.007812 -7.46875 6.6875 -7.6875 C 6.375 -7.914062 5.992188 -8.03125 5.546875 -8.03125 C 5.117188 -8.03125 4.757812 -7.921875 4.46875 -7.703125 C 4.175781 -7.492188 3.96875 -7.207031 3.84375 -6.84375 C 3.695312 -6.4375 3.625 -5.882812 3.625 -5.1875 C 3.625 -4.5 3.691406 -3.953125 3.828125 -3.546875 C 3.953125 -3.148438 4.160156 -2.835938 4.453125 -2.609375 C 4.753906 -2.378906 5.117188 -2.265625 5.546875 -2.265625 C 5.960938 -2.265625 6.328125 -2.375 6.640625 -2.59375 C 6.953125 -2.8125 7.171875 -3.109375 7.296875 -3.484375 L 7.3125 -3.59375 C 7.332031 -3.644531 7.378906 -3.707031 7.453125 -3.78125 C 7.535156 -3.851562 7.625 -3.882812 7.71875 -3.875 L 9.828125 -3.546875 C 9.929688 -3.523438 10.003906 -3.476562 10.046875 -3.40625 C 10.097656 -3.34375 10.117188 -3.265625 10.109375 -3.171875 C 10.078125 -2.953125 10.039062 -2.796875 10 -2.703125 C 9.71875 -1.804688 9.171875 -1.101562 8.359375 -0.59375 C 7.554688 -0.09375 6.628906 0.15625 5.578125 0.15625 Z M 5.578125 0.15625 "/></g></g></g><g fill="#000000" fill-opacity="1"><g transform="translate(272.62545, 299.32955)"><g><path d="M 6.015625 -2.21875 C 6.898438 -2.257812 7.570312 -2.566406 8.03125 -3.140625 C 8.113281 -3.234375 8.203125 -3.28125 8.296875 -3.28125 C 8.378906 -3.28125 8.453125 -3.25 8.515625 -3.1875 L 9.65625 -2.078125 C 9.738281 -2.003906 9.78125 -1.925781 9.78125 -1.84375 C 9.78125 -1.75 9.753906 -1.671875 9.703125 -1.609375 C 9.265625 -1.054688 8.695312 -0.625 8 -0.3125 C 7.3125 0 6.5625 0.15625 5.75 0.15625 C 4.519531 0.15625 3.5 -0.15625 2.6875 -0.78125 C 1.882812 -1.40625 1.34375 -2.269531 1.0625 -3.375 C 0.90625 -3.957031 0.828125 -4.578125 0.828125 -5.234375 C 0.828125 -6.003906 0.898438 -6.660156 1.046875 -7.203125 C 1.304688 -8.191406 1.84375 -8.984375 2.65625 -9.578125 C 3.46875 -10.179688 4.425781 -10.484375 5.53125 -10.484375 C 6.84375 -10.484375 7.878906 -10.09375 8.640625 -9.3125 C 9.410156 -8.539062 9.910156 -7.453125 10.140625 -6.046875 C 10.191406 -5.609375 10.234375 -5.125 10.265625 -4.59375 C 10.265625 -4.363281 10.148438 -4.25 9.921875 -4.25 L 3.765625 -4.25 C 3.691406 -4.25 3.65625 -4.207031 3.65625 -4.125 C 3.6875 -3.84375 3.726562 -3.640625 3.78125 -3.515625 C 3.914062 -3.097656 4.179688 -2.773438 4.578125 -2.546875 C 4.972656 -2.328125 5.453125 -2.21875 6.015625 -2.21875 Z M 5.5 -8.03125 C 5.0625 -8.03125 4.695312 -7.925781 4.40625 -7.71875 C 4.125 -7.519531 3.929688 -7.234375 3.828125 -6.859375 C 3.765625 -6.597656 3.722656 -6.429688 3.703125 -6.359375 C 3.691406 -6.273438 3.726562 -6.234375 3.8125 -6.234375 L 7.21875 -6.234375 C 7.28125 -6.234375 7.3125 -6.257812 7.3125 -6.3125 C 7.3125 -6.457031 7.285156 -6.613281 7.234375 -6.78125 C 7.117188 -7.164062 6.910156 -7.46875 6.609375 -7.6875 C 6.316406 -7.914062 5.945312 -8.03125 5.5 -8.03125 Z M 5.5 -8.03125 "/></g></g></g></svg>